<svg width="250" height="50" viewBox="0 0 250 50" fill="none" xmlns="http://www.w3.org/2000/svg">
<circle cx="39" cy="25" r="20" fill="#4F46E5"/>
<path d="M72.8257 32.04C74.5757 32.04 75.929 31.445 76.8857 30.255C77.8423 29.065 78.3207 27.6183 78.3207 25.915C78.3207 24.1883 77.9007 22.8 77.0607 21.75C76.244 20.7 75.1123 20.175 73.6657 20.175C73.1057 20.175 72.4407 20.3383 71.6707 20.665C70.9007 20.9917 70.2123 21.4233 69.6057 21.96V31.41C70.7023 31.83 71.7757 32.04 72.8257 32.04ZM69.6057 42.05H66.7007V18.04H68.5907L69.3957 19.86C71.099 18.3667 72.9073 17.62 74.8207 17.62C76.734 17.62 78.2973 18.3667 79.5107 19.86C80.724 21.3533 81.3307 23.3017 81.3307 25.705C81.3307 28.085 80.619 30.1383 79.1957 31.865C77.7957 33.5683 75.789 34.42 73.1757 34.42C72.009 34.42 70.819 34.2567 69.6057 33.93V42.05ZM99.0486 21.925V34H96.0736V22.065C96.0736 21.4583 95.8286 20.9917 95.3386 20.665C94.8719 20.3383 94.2419 20.175 93.4486 20.175C91.7919 20.175 90.0769 20.77 88.3036 21.96V34H85.3286V18.04H87.2186L88.0936 19.86C89.8903 18.3667 91.8386 17.62 93.9386 17.62C95.5019 17.62 96.7386 18.0167 97.6486 18.81C98.5819 19.6033 99.0486 20.6417 99.0486 21.925ZM110.362 31.97C112.042 31.97 113.722 31.4683 115.402 30.465L116.417 32.565C114.457 33.8017 112.357 34.42 110.117 34.42C107.9 34.42 106.138 33.72 104.832 32.32C103.525 30.8967 102.872 28.855 102.872 26.195C102.872 23.535 103.548 21.4467 104.902 19.93C106.255 18.39 108.052 17.62 110.292 17.62C112.322 17.62 113.92 18.25 115.087 19.51C115.577 20.0233 115.985 20.77 116.312 21.75C116.662 22.73 116.837 23.885 116.837 25.215L115.752 26.44H105.847C105.917 30.1267 107.422 31.97 110.362 31.97ZM113.897 24.235C113.897 22.9283 113.558 21.8783 112.882 21.085C112.205 20.2917 111.307 19.895 110.187 19.895C109.09 19.895 108.157 20.2917 107.387 21.085C106.617 21.855 106.15 22.905 105.987 24.235H113.897ZM123.334 18.04V29.905C123.334 30.5583 123.568 31.0717 124.034 31.445C124.524 31.795 125.154 31.97 125.924 31.97C127.581 31.97 129.284 31.3167 131.034 30.01V18.04H134.009V34H132.119L131.244 31.9C129.448 33.58 127.453 34.42 125.259 34.42C123.859 34.42 122.693 34.0467 121.759 33.3C120.826 32.5533 120.359 31.4683 120.359 30.045V18.04H123.334ZM141.824 19.86C143.551 18.3667 145.464 17.62 147.564 17.62C149.664 17.62 151.099 18.4367 151.869 20.07C153.712 18.4367 155.649 17.62 157.679 17.62C159.172 17.62 160.351 18.0167 161.214 18.81C162.101 19.6033 162.544 20.6417 162.544 21.925V34H159.569V22.065C159.569 21.4583 159.347 20.9917 158.904 20.665C158.461 20.3383 157.866 20.175 157.119 20.175C155.602 20.175 153.981 20.7933 152.254 22.03V34H149.279V22.065C149.279 21.4583 149.057 20.9917 148.614 20.665C148.171 20.3383 147.576 20.175 146.829 20.175C145.266 20.175 143.667 20.77 142.034 21.96V34H139.059V18.04H140.949L141.824 19.86ZM173.973 19.895C173.087 19.895 172.317 20.0933 171.663 20.49C171.033 20.8867 170.567 21.4 170.263 22.03C169.703 23.22 169.423 24.4917 169.423 25.845C169.423 30.045 170.882 32.145 173.798 32.145C174.685 32.145 175.443 31.9467 176.073 31.55C176.703 31.1533 177.182 30.64 177.508 30.01C178.068 28.8433 178.348 27.5717 178.348 26.195C178.348 21.995 176.89 19.895 173.973 19.895ZM173.973 17.62C176.563 17.62 178.453 18.425 179.643 20.035C180.833 21.645 181.428 23.745 181.428 26.335C181.428 28.2017 180.938 29.9283 179.958 31.515C179.422 32.3783 178.617 33.0783 177.543 33.615C176.47 34.1517 175.187 34.42 173.693 34.42C171.127 34.42 169.26 33.65 168.093 32.11C166.927 30.57 166.343 28.505 166.343 25.915C166.343 24.3983 166.577 23.115 167.043 22.065C167.533 21.015 168.047 20.21 168.583 19.65C169.12 19.0667 169.855 18.5883 170.788 18.215C171.722 17.8183 172.783 17.62 173.973 17.62ZM187.018 33.79C186.668 34.14 186.236 34.315 185.723 34.315C185.209 34.315 184.778 34.14 184.428 33.79C184.078 33.4167 183.903 32.9617 183.903 32.425C183.903 31.8883 184.078 31.445 184.428 31.095C184.778 30.745 185.209 30.57 185.723 30.57C186.236 30.57 186.668 30.745 187.018 31.095C187.391 31.445 187.578 31.8883 187.578 32.425C187.578 32.9617 187.391 33.4167 187.018 33.79ZM199.899 24.445V22.905C199.899 21.015 198.919 20.07 196.959 20.07C195.419 20.07 193.809 20.5717 192.129 21.575L191.114 19.475C193.074 18.2383 195.186 17.62 197.449 17.62C199.036 17.62 200.331 18.0283 201.334 18.845C202.361 19.6383 202.874 20.875 202.874 22.555V34H200.984L200.109 31.9C199.362 32.67 198.476 33.2883 197.449 33.755C196.422 34.1983 195.489 34.42 194.649 34.42C193.202 34.42 192.047 34.0233 191.184 33.23C190.321 32.4367 189.889 31.3983 189.889 30.115C189.889 26.335 193.226 24.445 199.899 24.445ZM194.089 27.84C193.646 28.2367 193.342 28.5983 193.179 28.925C193.039 29.2283 192.969 29.6367 192.969 30.15C192.969 30.64 193.179 31.0717 193.599 31.445C194.042 31.795 194.614 31.97 195.314 31.97C196.784 31.97 198.312 31.3167 199.899 30.01V26.51C196.959 26.5567 195.022 27 194.089 27.84ZM210.875 14.295C210.502 14.6683 210.047 14.855 209.51 14.855C208.974 14.855 208.519 14.6683 208.145 14.295C207.772 13.8983 207.585 13.4317 207.585 12.895C207.585 12.3583 207.772 11.9033 208.145 11.53C208.542 11.1333 208.997 10.935 209.51 10.935C210.024 10.935 210.467 11.1333 210.84 11.53C211.237 11.9033 211.435 12.3583 211.435 12.895C211.435 13.4317 211.249 13.8983 210.875 14.295ZM208.04 18.04H211.015V34H208.04V18.04Z" fill="#4F46E5"/>
<path d="M32.8184 28.2949H28.5996C28.6387 27.9531 28.7363 27.6309 28.8926 27.3281C29.0391 27.0254 29.2246 26.7617 29.4492 26.5371C29.6836 26.3027 29.9473 26.1221 30.2402 25.9951C30.5332 25.8584 30.8408 25.79 31.1631 25.79H32.8037V13.793H43.7168C44.0977 13.793 44.4541 13.8906 44.7861 14.0859C45.1279 14.2715 45.4258 14.5352 45.6797 14.877C45.9336 15.209 46.1338 15.6045 46.2803 16.0635C46.4268 16.5127 46.5 16.9961 46.5 17.5137V24.6035C46.5 25.1211 46.4268 25.6045 46.2803 26.0537C46.1338 26.4932 45.9336 26.8838 45.6797 27.2256C45.4258 27.5576 45.1279 27.8213 44.7861 28.0166C44.4541 28.2021 44.0977 28.2949 43.7168 28.2949H36.334V36H32.8184V28.2949ZM43.0869 25.79V16.2686H36.3193V25.79H43.0869Z" fill="white"/>
</svg>
